<?xml version="1.0" encoding="UTF-8"?><svg id="Layer_2" xmlns="http://www.w3.org/2000/svg" viewBox="0 0 241.07 56.11"><defs><style>.cls-1{opacity:.8;}.cls-2{fill:#ebf7ff;}</style></defs><g id="Layer_1-2"><path class="cls-1" d="M63.6,26.54h-4.14c.86-.97,2.07-1.48,3.56-1.48.16,0,.32,0,.48.02.07.45.1.94.1,1.46ZM144.64,26.54h-4.14c.86-.97,2.07-1.48,3.56-1.48.16,0,.32,0,.48.02.07.45.1.94.1,1.46ZM105.1,55.06h18.3l-.55-.55c-1.52-1.65-2-3.5-2-6.13v-16.5c0-4.11-1.29-7.42-3.57-9.7l-4.07-4.07c-2.26-2.26-5.49-3.5-9.41-3.5-2.63,0-4.95.73-7.26,2.19l-2.27-2.27c-4.12.67-8.1.82-12,.82h-3.45l.52.52c1.54,1.67,2.03,3.58,2.03,6.23v22.2c0,2.5-.44,4.29-1.79,5.88l1.66-5.34-4.07-4.07c-5.1,2.4-9.15,3.83-12.52,3.83-2.3,0-4.29-.42-5.94-1.23-.66-1.39-1.02-3.03-1.02-4.89,0-.38.07-.83.07-1.27h23.02v-.98c0-5.6-1.89-10.17-5.04-13.32l-4.07-4.07c-2.52-2.52-5.84-4.13-9.65-4.65-.88-.12-1.78-.18-2.71-.18-5.01,0-9.43,1.58-12.78,4.32-4.18,3.42-6.71,8.64-6.71,14.88,0,.21,0,.42,0,.63-.66-1.51-1.6-2.87-2.83-4.09l-4.07-4.07c-1.18-1.18-2.62-2.24-4.35-3.19-4.01-2.19-7.29-3.68-9.66-5.06-.1-.36-.15-.75-.15-1.15,0-2.65,2.57-4.85,6.54-4.85,2.79,0,6.17,1.25,10.36,3.38V6.43s-4.07-4.07-4.07-4.07C27.34.81,23.37,0,19.11,0c-5.74,0-10.32,1.51-13.46,4.08S.81,10.26.81,14.48c0,3.8,1.5,7.26,4.43,10.18l4.07,4.07c1.6,1.6,3.64,3.05,6.08,4.3,3.04,1.57,5.73,2.7,7.8,3.87.17.51.26,1.07.26,1.68s-.66,2.8-1.86,3.78c-1.31,1.07-3.26,1.73-5.71,1.73-5.14,0-10.07-1.98-15.88-5.51l2.57,10.58,4.07,4.07c5.07,1.69,9.85,2.65,14.77,2.65,11.81,0,19.49-6.36,19.62-15.57.85,2.27,2.13,4.28,3.8,5.96,0,0,0,0,0,0l4.07,4.07h0c3.65,3.65,9.19,5.77,16.28,5.77,4.72,0,8.92-1.05,13.35-2.55l.68-2.18,3.68,3.68h18.3l-.55-.55c-1.52-1.65-2-3.5-2-6.13v-11.47c0-6.97.3-10.65,4.27-10.65.05,0,.09,0,.13,0,.38,1.69.52,3.89.52,6.57v11.47c0,2.92-.6,4.88-2.55,6.67l4.07,4.07ZM234.02,55.74c.9,0,2.25-.07,4.2-.22l2.85-6.3-4.07-4.07c-.54-.08-1.04-.16-1.49-.26-.04-.39-.06-.82-.06-1.29v-9c0-5.18-.07-9.22-3.22-12.45-.03-.03-.07-.07-.1-.1l-.16-.16-3.81-3.81-.1-.1c-2.7-2.7-6.87-3.87-12.65-3.87-2.85,0-5.55.52-8.4,1.35l-3.52,8.02,4.07,4.07c3.38-1.35,6.52-2.1,9.52-2.1.21,0,.41,0,.6.02-.12.71-.45,1.25-.98,1.68-1.64,1.34-5.16,1.59-9.85,2.71-2.93.7-5.26,1.74-6.96,3.13-2.3,1.88-3.46,4.4-3.46,7.59,0,.18,0,.36.01.54-3.83,2.04-7.08,3.06-10.04,3.06-1.67,0-3.17-.33-4.47-.97-1.03-1.97-1.58-4.48-1.58-7.41,0-6.52,3.22-10.27,8.17-10.27,1.95,0,4.35.83,7.35,2.4v-8.92l-4.07-4.07c-3.52-.53-6.3-.83-8.4-.83-6.19,0-11.34,1.8-15.07,4.85-4.2,3.43-6.6,8.45-6.68,14.29-.55-4.23-2.28-7.74-4.85-10.3l-4.07-4.07c-3.1-3.1-7.41-4.83-12.36-4.83-5.01,0-9.43,1.58-12.78,4.32-4.18,3.42-6.71,8.64-6.71,14.88,0,5.31,1.75,9.8,5.02,13.06l4.07,4.07c3.65,3.65,9.19,5.76,16.28,5.76,4.72,0,8.92-1.05,13.35-2.55l2.7-8.7-4.07-4.07c-5.1,2.4-9.15,3.83-12.52,3.83-2.3,0-4.29-.42-5.94-1.23-.66-1.39-1.02-3.03-1.02-4.89,0-.38.08-.83.08-1.27h23.02v-.89c.55,3.9,2.25,7.33,4.9,9.99l4.07,4.07c3.56,3.56,8.85,5.72,15.38,5.72,4.05,0,7.87-.75,11.77-2.47l1.67-5.3,3.95,3.95c2.2,2.2,5.44,3.53,9.36,3.53.9,0,2.33-.08,4.42-.23l3.15-6.67-4.07-4.07h-.6c-.38,0-.75-.02-1.09-.07,0-.09,0-.19,0-.28,0-1.93.97-3.18,2.9-4.31v.39c0,3.11,1.11,5.74,3.02,7.65l4.07,4.07c2.19,2.19,5.43,3.45,9.28,3.45Z"/><path class="cls-2" d="M15.88,44.1c4.7,0,7.57-2.43,7.57-5.51,0-4.7-5.14-6.03-12.13-9.63C4.41,25.43.81,20.36.81,14.48.81,6.03,7.64,0,19.11,0c4.26,0,8.23.81,12.49,2.35v8.38c-4.19-2.13-7.57-3.38-10.36-3.38-3.97,0-6.54,2.21-6.54,4.85,0,4.12,5.29,5.59,13.89,10.29,5.73,3.16,8.38,7.5,8.38,13.52,0,9.33-7.72,15.8-19.62,15.8-4.92,0-9.7-.96-14.77-2.65l-2.57-10.58c5.81,3.53,10.73,5.51,15.88,5.51Z"/><path class="cls-2" d="M53.7,33.14c0,.45-.07.9-.07,1.27,0,6.45,4.2,10.2,11.02,10.2,3.37,0,7.42-1.42,12.52-3.83l-2.7,8.7c-4.42,1.5-8.62,2.55-13.35,2.55-13.42,0-21.3-7.57-21.3-18.82s8.25-19.2,19.5-19.2c9.97,0,17.4,7.05,17.4,18.15v.98h-23.02ZM58.95,20.99c-2.92,0-4.8,1.95-4.95,5.55h9.6c0-3.67-1.65-5.55-4.65-5.55Z"/><path class="cls-2" d="M81.38,44.32v-22.2c0-2.92-.6-4.95-2.55-6.75h3.45c3.9,0,7.87-.15,12-.82l.3,3.67c3-2.4,5.85-3.6,9.22-3.6,7.87,0,12.97,5.03,12.97,13.2v16.5c0,2.92.6,4.88,2.55,6.67h-18.3c1.95-1.8,2.55-3.75,2.55-6.67v-11.47c0-6.97-.9-10.65-4.73-10.65s-4.27,3.67-4.27,10.65v11.47c0,2.92.6,4.88,2.55,6.67h-18.3c1.95-1.8,2.55-3.75,2.55-6.67Z"/><path class="cls-2" d="M134.74,33.14c0,.45-.08.9-.08,1.27,0,6.45,4.2,10.2,11.03,10.2,3.37,0,7.42-1.42,12.52-3.83l-2.7,8.7c-4.42,1.5-8.62,2.55-13.35,2.55-13.42,0-21.3-7.57-21.3-18.82s8.25-19.2,19.5-19.2c9.97,0,17.4,7.05,17.4,18.15v.98h-23.02ZM139.99,20.99c-2.92,0-4.8,1.95-4.95,5.55h9.6c0-3.67-1.65-5.55-4.65-5.55Z"/><path class="cls-2" d="M193.89,49.57c-3.9,1.72-7.73,2.47-11.77,2.47-12.53,0-20.47-7.95-20.47-18.52,0-11.17,8.47-19.42,21.75-19.42,2.1,0,4.87.3,8.4.83v8.92c-3-1.57-5.4-2.4-7.35-2.4-4.95,0-8.17,3.75-8.17,10.27,0,7.72,3.82,12.45,10.12,12.45,3,0,6.3-1.05,10.2-3.15l-2.7,8.55Z"/><path class="cls-2" d="M210.67,40.41c0,2.62,1.87,4.43,5.17,4.43h.6l-3.15,6.67c-2.1.15-3.52.23-4.42.23-7.42,0-12.45-4.8-12.45-11.17,0-5.55,3.52-9.07,10.42-10.72,6.6-1.57,10.87-1.42,10.87-5.02,0-2.25-1.58-3.45-4.72-3.45s-6.15.75-9.52,2.1l3.52-8.02c2.85-.83,5.55-1.35,8.4-1.35,5.85,0,10.05,1.2,12.75,3.97,3.15,3.23,3.22,7.27,3.22,12.45v9c0,3.9,1.35,5.02,5.62,5.62l-2.85,6.3c-1.95.15-3.3.22-4.2.22-7.2,0-12.3-4.42-12.3-11.1v-6.3c-4.65,1.8-6.97,3.15-6.97,6.15Z"/></g></svg>